<svg width="40" height="40" viewBox="0 0 40 40" fill="none" xmlns="http://www.w3.org/2000/svg">
<rect width="40" height="40" rx="20" fill="#FFCC4D"/>
<path d="M13.7393 21.4778L30.8179 21.4778C30.8181 21.4778 30.8182 21.4778 30.8183 21.4778H13.7393ZM13.7393 21.4778L19.0179 26.7734C19.2937 27.05 19.4332 27.4016 19.4456 27.8057C19.4582 28.2198 19.3159 28.5786 19.0179 28.8566C18.7431 29.1522 18.3889 29.3 17.9785 29.3C17.5641 29.3 17.2021 29.1497 16.9095 28.8562L9.11242 21.034C8.96749 20.8886 8.85735 20.7235 8.79089 20.5383C8.72865 20.3649 8.69915 20.182 8.70002 19.9918M13.7393 21.4778L32.3 19.9933C32.301 19.5824 32.1591 19.2235 31.8734 18.9369C31.5877 18.6503 31.2294 18.5074 30.8186 18.5074H13.7393L19.0172 13.2125C19.0173 13.2124 19.0174 13.2123 19.0175 13.2122C19.3115 12.9191 19.4585 12.5582 19.4456 12.1467C19.4329 11.7435 19.2775 11.3966 18.9838 11.1243C18.6924 10.8342 18.3342 10.6888 17.926 10.7007C17.5292 10.7122 17.1838 10.8538 16.9095 11.1289L9.11242 18.9511L9.11172 18.9519C8.96775 19.0973 8.85836 19.2621 8.79208 19.4468C8.73002 19.6197 8.7001 19.8022 8.70002 19.9918M8.70002 19.9918C8.70002 19.9916 8.70002 19.9913 8.70002 19.9911L8.99992 19.9926H8.70002C8.70002 19.9923 8.70002 19.9921 8.70002 19.9918Z" fill="white" stroke="white" stroke-width="0.6"/>
</svg>
