<svg width="50" height="50" viewBox="0 0 50 50" fill="none" xmlns="http://www.w3.org/2000/svg">
<path d="M25.3906 34.6094C15.0781 34.6094 6.48438 31.4063 4.53125 27.1875C8.125 38.2031 5.9375 48.4375 25.3906 48.4375C44.8438 48.4375 42.6563 38.2031 46.25 27.1875C44.2969 31.4063 35.7031 34.6094 25.3906 34.6094Z" fill="#3E4347"/>
<path d="M15.7813 16.0156C26.7969 12.9688 52.1094 17.5781 46.5626 28.0469C49.6094 31.4844 50.7032 35.1563 36.1719 34.9219C13.8282 40.1563 -4.6093 29.2969 3.5157 21.0938C1.56257 17.1094 5.85945 15.0781 15.7813 16.0156Z" fill="#6F7980"/>
<path d="M25.3906 34.1406C35.1562 34.1406 43.2812 31.0937 45.1562 27.1094C45.3125 26.7188 45.3906 26.3281 45.5469 25.9375C45.5469 25.7031 45.625 25.5469 45.625 25.3125C45.625 20.4688 36.5625 16.5625 25.4687 16.5625C14.375 16.5625 5.3125 20.4688 5.3125 25.3125C5.3125 25.5469 5.3125 25.7031 5.39062 25.9375C5.46875 26.3281 5.625 26.7188 5.78125 27.1094C7.5 31.0937 15.625 34.1406 25.3906 34.1406Z" fill="#3E4347"/>
<path d="M25.3906 34.1406C35.1563 34.1406 43.2812 31.0938 45.1562 27.1094C45.1562 26.9531 45.2344 26.875 45.2344 26.7188C43.5938 22.5781 35.3125 19.4531 25.3125 19.4531C15.3125 19.4531 7.03125 22.5781 5.39062 26.7188C5.46875 26.875 5.46875 26.9531 5.46875 27.1094C7.5 31.0938 15.625 34.1406 25.3906 34.1406Z" fill="#FBBF67"/>
<path d="M28.1249 23.75C24.2187 23.6719 19.453 26.7969 16.2499 26.5625C10.9374 26.1719 16.4062 28.75 20.1562 28.75C22.6562 28.75 24.3749 26.4844 25.703 25.5469C27.578 24.375 32.1874 23.8281 28.1249 23.75Z" fill="#D33B23"/>
<path d="M16.5626 21.1718C15.5469 18.3593 9.68756 22.9686 14.6876 23.9843C15.4688 24.1405 17.4219 23.6718 16.5626 21.1718ZM27.8907 29.9999C26.6407 26.5624 19.3751 32.2655 25.6251 33.4374C26.5626 33.5936 28.9844 33.0468 27.8907 29.9999ZM29.2188 20.1561C28.0469 17.3436 20.7813 21.953 26.9532 22.9686C27.8126 23.0468 30.2344 22.578 29.2188 20.1561ZM41.1719 23.203C40.7032 20.1561 31.4063 21.8749 37.8126 25.078C38.7501 25.5468 41.5626 25.9374 41.1719 23.203Z" fill="#FF8736"/>
<path d="M11.7968 25.9376C10.9374 24.7657 9.6874 23.2032 9.21865 23.9845C8.51553 25.0782 8.28115 27.2657 8.82803 27.3439C12.7343 28.1251 12.4218 26.8751 11.7968 25.9376ZM33.2812 23.7501C31.8749 24.3751 31.0155 23.9064 30.3905 24.8439C28.9062 26.9532 33.9843 27.6564 34.9218 26.4064C35.6249 25.547 34.2187 23.3595 33.2812 23.7501ZM34.453 28.9845C33.4374 28.5157 33.6718 30.0782 32.1093 28.8282C31.0155 27.9689 28.6718 30.1564 30.2343 31.6407C31.953 33.2814 32.4218 31.7189 33.1249 31.8751C34.6093 32.1095 37.1874 30.1564 34.453 28.9845ZM17.2655 29.4532C16.328 28.5157 14.8437 31.172 15.3905 31.8751C16.5624 33.4376 20.7812 33.1251 21.8749 31.9532C23.2812 30.547 19.5312 31.6407 17.2655 29.4532Z" fill="#89664C"/>
<path d="M13.6719 28.6719C13.6719 28.6719 13.75 29.6094 13.9062 30C12.8906 29.6094 12.8906 27.8125 12.8906 27.8125C12.8906 27.8125 12.1875 28.2031 12.2656 28.9063C11.1719 27.9688 10.2344 28.4375 10.2344 28.4375C10.2344 28.4375 11.6406 29.2187 11.875 29.7656C11.0937 29.8437 10.625 30.0781 10.3125 30.7031C10.3125 30.7031 11.875 29.9219 13.0469 30.4688C12.5781 30.8594 12.8125 31.7969 12.8125 31.7969C14.6875 29.8438 15.8594 31.5625 16.7187 31.0938C16.0156 30.1562 15 30 15 30C14.6094 29.2188 13.6719 28.6719 13.6719 28.6719ZM22.1094 21.0156C21.1719 20.8594 20.2344 21.3281 20.2344 21.3281C20.2344 21.3281 21.0937 21.7188 21.4844 21.875C20.625 22.5781 19.0625 21.6406 19.0625 21.6406C19.0625 21.6406 19.0625 22.4219 19.6875 22.7344C18.3594 23.2031 18.2031 24.2969 18.2031 24.2969C18.2031 24.2969 19.6094 23.5156 20.1562 23.5938C19.7656 24.2969 19.7656 24.8438 20.2344 25.3906C20.2344 25.3906 20.3906 23.6719 21.4844 22.9688C21.5625 23.5938 22.5 23.8281 22.5 23.8281C21.7969 21.25 23.9062 21.0938 23.9062 20.1562C22.8125 20.1562 22.1094 21.0156 22.1094 21.0156ZM40.3125 28.0469C40.7031 27.6563 42.3437 27.4219 42.3437 27.4219C42.3437 27.4219 41.6406 26.6406 40.2344 27.0312C40.5469 26.4062 40.0781 25.7813 40.0781 25.7813C40.0781 25.7813 39.375 27.4219 38.2813 27.4219C38.5938 27.0312 38.9844 26.25 38.9844 26.25C38.9844 26.25 37.8906 26.4844 37.2656 27.1875C37.2656 27.1875 36.25 26.875 35.3125 27.5C35.8594 28.2813 37.6563 27.1094 38.5938 29.6094C38.5938 29.6094 39.1406 28.8281 38.9062 28.2813C40.1562 28.2031 41.3281 29.5312 41.3281 29.5312C41.3281 28.8281 41.0156 28.4375 40.3125 28.0469Z" fill="#699635"/>
<path opacity="0.6" d="M26.0155 8.90625C23.1249 5.9375 25.078 1.5625 25.078 1.5625C25.078 1.5625 18.9843 7.34375 22.8124 11.3281C27.2656 15.9375 25.078 18.75 25.078 18.75C25.078 18.75 30.5468 13.5937 26.0155 8.90625ZM17.4218 11.5625C15.2343 9.45313 16.7187 6.25 16.7187 6.25C16.7187 6.25 12.1874 10.4688 15.078 13.3594C18.4374 16.7188 16.7187 18.75 16.7187 18.75C16.7187 18.75 20.7812 15 17.4218 11.5625ZM34.6093 11.5625C32.4218 9.45313 33.9062 6.25 33.9062 6.25C33.9062 6.25 29.3749 10.4688 32.2655 13.3594C35.6249 16.7188 33.9062 18.75 33.9062 18.75C33.9062 18.75 37.9687 15 34.6093 11.5625Z" fill="#A6AEB0"/>
</svg>
