<svg width="50" height="50" viewBox="0 0 50 50" fill="none" xmlns="http://www.w3.org/2000/svg">
<path d="M26.8984 38.9844L3.88672 34.625C3.88672 34.625 5.27734 40.3828 5.75391 41.1602C6.23047 41.9375 9.14844 44.0625 11.9492 45.0586C14.75 46.0547 36.1602 45.4102 37.9688 44.7227C39.7734 44.0391 43.0313 42.5625 43.7305 41.6563C44.3242 40.8867 46.0352 34.2461 46.0352 34.2461L26.8984 38.9844Z" fill="#878787"/>
<path d="M6.42578 37.5547L8.02344 43.082C8.02344 43.082 9.16797 43.8984 10.8008 44.6367C12.457 45.3867 14.668 45.9609 14.668 45.9609C14.668 45.9609 17.1719 41.9687 17.1289 41.6953C17.0859 41.4219 13.9414 40.582 13.9414 40.582C13.9414 40.582 11.3867 39.875 9.97266 39.3281C8.5625 38.7852 6.42578 37.5547 6.42578 37.5547Z" fill="#E0E0E0"/>
<path d="M37.6758 40.2539C37.6758 40.2539 39.4766 39.6953 40.418 39.3398C41.5117 38.9258 42.8047 38.2461 42.8047 38.2461L41.4688 43.168C41.4688 43.168 40.3789 43.7852 39.3789 44.2227C38.5436 44.5846 37.691 44.9053 36.8242 45.1836L35.8711 42.9062L37.6758 40.2539Z" fill="#ABABAB"/>
<path d="M14.6602 45.9609C14.6602 45.9609 19.7695 47.1484 25.8828 46.9648C31.4922 46.7969 36.832 45.1875 36.832 45.1875L37.7031 40.2461C37.7031 40.2461 34.2344 41.5781 24.5625 41.8047C18.7227 41.9414 13.9453 40.582 13.9453 40.582L14.6602 45.9609Z" fill="#C8C8C8"/>
<path d="M3.39062 28.3515C3.39062 28.8085 3.89062 32.6406 3.89062 32.6406C3.89062 32.6406 5.03125 34.2382 5.625 34.5585C6.21875 34.8788 14.8867 37.7538 15.25 37.8437C15.6133 37.9335 28.707 38.4374 29.668 38.4374C30.6289 38.4374 41.0742 35.9726 41.0742 35.9726L47 33.0937C47 33.0937 47.2852 30.5468 47.2852 30.3203C47.2852 30.0937 46.6172 27.1679 46.3711 26.9453C46.0234 26.6288 44.1758 25.7538 44.1758 25.7538C44.1758 25.7538 43.2266 24.6054 41.5469 23.6328C39.8203 22.6367 35.2031 20.7148 32.4219 20.0312C29.6406 19.3476 21.1836 18.9531 16.5312 20.0937C11.8789 21.2343 8.68359 22.4648 7.22266 24.0156C5.76172 25.5663 5.21484 26.5702 5.21484 26.5702L3.39062 28.3515Z" fill="#F7AD3C"/>
<path d="M21.0586 20.8007C21.1446 21.1836 20.2891 21.1132 18.3907 21.9843C16.9492 22.6445 15.3321 24.4062 14.8907 23.4023C14.4219 22.3437 15.9571 21.3711 18.0313 20.8984C19.5469 20.5507 20.9883 20.4882 21.0586 20.8007ZM22.9844 22.4609C22.668 22.3164 21.8789 23.2304 21.1289 24.4336C20.3789 25.6367 19.3907 27.2304 20.418 27.5937C21.6211 28.0195 21.9571 26.0078 22.2071 25.2421C22.6914 23.7578 23.2461 22.5781 22.9844 22.4609ZM26.9727 22.2421C26.7422 22.3554 27.1016 23.2812 27.5 24.4296C27.8985 25.5781 28.2735 27.5664 29.5039 27.1367C30.7344 26.7109 29.0078 24.3867 28.6758 23.9296C28.1992 23.2773 27.2617 22.0976 26.9727 22.2421ZM29.0078 21.0468C28.9922 21.4726 30.6836 21.8554 32.336 22.7226C33.6602 23.4218 35.211 24.4062 35.5039 23.5859C35.7969 22.7578 35.0391 22.3632 33.0078 21.6406C30.9805 20.9179 29.0274 20.625 29.0078 21.0468Z" fill="#CE701D"/>
<path opacity="0.6" d="M27.7305 3.04308C27.1915 3.35167 27.7657 4.67198 27.1993 5.8712C26.6329 7.07042 25.2696 8.06651 24.1368 8.83214C23.004 9.59776 19.629 11.5978 19.9454 15.2228C20.2149 18.3243 21.5235 19.8985 22.7188 21.0978C23.797 22.1759 25.2696 23.2423 25.9337 23.1759C26.5977 23.1095 25.8985 20.6798 27.0665 18.9493C28.2305 17.2189 30.2618 15.8204 31.6915 14.6564C33.1212 13.4923 34.6876 10.6642 32.8907 7.70323C31.0899 4.73839 28.1954 2.77745 27.7305 3.04308Z" fill="#EAEAEA"/>
<path d="M30.8984 36.8749C30.8984 36.8749 32.3476 35.3593 34.6367 35.3281C36.9258 35.2929 37.8359 35.9687 37.8359 35.9687C37.8359 35.9687 38.8125 34.2578 40.5351 33.8046C42.5469 33.2773 43.7578 34.2187 43.8594 34.0507C43.9609 33.8828 44.3476 31.7695 45.0273 30.7929C45.8125 29.6718 46.4687 29.6913 46.4687 29.6913C46.4687 29.6913 46.3008 28.5038 45.5586 27.4257C44.9336 26.5156 44.1836 25.7538 44.1836 25.7538C44.1836 25.7538 45.8359 25.4804 47.043 26.8984C47.9219 27.9296 47.7344 29.8085 47.7344 29.8085C47.7344 29.8085 48.914 30.5507 48.207 32.332C47.5 34.1132 46.1015 35.4218 43.9336 36.7734C42.4101 37.7265 36.5469 40.0976 30.7305 40.4687C24.6484 40.8554 17.625 41.0624 10.8672 38.5742C6.0078 36.789 2.0703 34.0312 1.54295 31.3359C1.0117 28.6406 2.98436 27.3203 3.59764 26.9492C4.21092 26.5781 5.21874 26.5742 5.21874 26.5742C5.21874 26.5742 4.73436 27.2578 4.51561 27.9101C4.29686 28.5663 4.20702 29.1406 4.20702 29.1406C4.20702 29.1406 4.99608 30.0937 5.19139 30.7304C5.3867 31.3632 5.41014 32.8906 5.41014 32.8906C5.41014 32.8906 6.34764 31.8945 7.85936 32.5078C9.89061 33.332 12.1562 36.2304 12.1562 36.2304C12.1562 36.2304 12.832 34.9218 15.3672 35.1171C17.9023 35.3124 21.3515 37.8242 21.3515 37.8242C21.3515 37.8242 23.418 35.6796 26.6015 35.7421C29.5039 35.8007 30.8984 36.8749 30.8984 36.8749Z" fill="#E08013"/>
<path d="M46.703 30.5625C46.3593 30.3398 45.8397 30.789 45.4804 31.3398C45.0116 32.0507 44.8905 32.957 45.1679 33.0742C45.5897 33.2539 46.0155 32.2968 46.4374 31.7617C46.7187 31.4062 47.1483 30.8515 46.703 30.5625ZM41.8749 34.7148C42.1249 35.125 41.2655 35.4687 40.9296 35.914C40.5976 36.3593 40.6327 37.0078 40.328 37.0703C39.6601 37.2109 39.0351 36.1796 39.0819 35.8007C39.1288 35.4218 40.0624 34.8007 40.3944 34.6875C40.7265 34.5742 41.6327 34.3125 41.8749 34.7148ZM34.9491 36.3789C35.0858 36.707 34.0155 37.6484 33.6132 38.0937C33.2108 38.539 32.7577 39.4101 32.2772 39.3398C31.6757 39.25 31.5155 38.0976 31.8046 37.4296C32.0937 36.7617 32.621 36.164 33.414 36.0234C34.0351 35.9101 34.7929 36 34.9491 36.3789ZM22.4608 39.9609C23.1991 40.6445 24.3358 39.0898 24.6405 38.6914C25.5546 37.5117 26.5819 37.1836 26.5976 36.8007C26.621 36.289 25.0155 36.2461 23.8827 36.8671C22.8632 37.4296 21.5702 39.1367 22.4608 39.9609ZM15.6562 36.1718C15.6366 36.625 14.9218 36.8164 14.4101 37.4414C14.0312 37.9023 13.6093 39.1757 12.7421 38.7539C11.8749 38.332 12.2616 37.0507 12.8749 36.4375C13.7187 35.5937 15.6757 35.6132 15.6562 36.1718ZM6.07803 35.5546C6.54678 35.8203 6.58975 34.6992 6.96866 34.2539C7.34756 33.8086 7.90616 33.7734 7.88272 33.2382C7.85928 32.7031 6.64053 32.5781 6.12491 32.9257C5.23037 33.5273 5.45303 35.1992 6.07803 35.5546ZM3.02725 32.4843C3.62881 32.5937 3.40616 31.4609 3.71866 30.9921C4.03116 30.5234 4.496 30.3476 4.18741 29.789C3.87491 29.2343 2.76162 29.3437 2.42959 30.2773C2.1835 30.9609 2.13662 32.3164 3.02725 32.4843Z" fill="#EC9C2A"/>
</svg>
