<svg width="50" height="50" viewBox="0 0 50 50" fill="none" xmlns="http://www.w3.org/2000/svg">
<path d="M26.3888 37.8542C26.3888 37.8542 37.4999 37.5584 39.793 32.1945C41.2777 28.7209 38.9472 18.925 38.9472 12.8472C38.9472 10.7903 37.3263 9.72224 34.2027 9.72224H14.068C12.5055 9.72224 9.44439 9.35835 9.44439 12.6736C9.44439 18.6236 6.993 28.425 8.56383 31.8611C11.1694 37.5584 22.2222 37.8542 22.2222 37.8542V42.1917C22.2222 42.1917 15.8555 45.4417 14.5861 46.1959C13.2194 46.9764 14.1277 48.2264 14.6736 48.4417C15.5847 48.8 17.8027 49.9722 24.0902 49.9722C30.5361 49.9722 32.7041 48.7028 33.4861 48.4417C33.7874 48.3417 35.3569 47.1472 33.5013 46.0486C30.1986 44.0931 26.3888 42.1917 26.3888 42.1917V37.8542Z" fill="#8899A6"/>
<path d="M38.8889 11.7251C38.8889 13.9765 35.3514 15.8015 24.1348 15.8015C12.9181 15.8015 9.38062 13.9765 9.38062 11.7251C9.38062 9.47229 12.9181 7.64868 24.1348 7.64868C35.3514 7.64868 38.8889 9.47368 38.8889 11.7251Z" fill="#CCD6DD"/>
<path d="M11.7471 11.9209C14.5832 25.1153 8.39017 30.7861 14.6402 32.9861C22.1846 35.6403 26.5041 35.1986 33.3318 32.9861C39.5818 30.9611 35.4152 23.4375 36.2832 12.4417C36.5082 9.61253 11.7471 11.9209 11.7471 11.9209Z" fill="#CCD6DD"/>
<path d="M12.5584 20.2542C12.4431 21.7584 11.0445 28.7667 11.6904 30.382C12.3848 32.1181 14.1209 34.8959 24.0751 34.8959C31.3667 34.8959 35.9959 32.6973 36.7487 29.9195C37.4029 27.5028 36.4015 22.1653 36.2862 20.1973" fill="#F4900C"/>
<path d="M24.3056 22.2223C30.8256 22.2223 36.1111 21.2896 36.1111 20.139C36.1111 18.9884 30.8256 18.0557 24.3056 18.0557C17.7855 18.0557 12.5 18.9884 12.5 20.139C12.5 21.2896 17.7855 22.2223 24.3056 22.2223Z" fill="#FFCC4D"/>
<path d="M34.368 6.80688C34.368 6.80688 26.143 26.1277 25.7139 27.0138C25.1902 28.0972 26.5486 29.6166 27.7555 27.6847C28.9611 25.7527 37.118 8.65966 37.118 8.65966L34.368 6.80688Z" fill="#C1694F"/>
<path d="M24.0418 16.2154C18.082 16.2154 13.3862 14.8168 11.6209 13.989C11.2874 13.8326 11.0296 13.5502 10.9043 13.2038C10.779 12.8573 10.7965 12.4753 10.9529 12.1418C11.1092 11.8082 11.3917 11.5505 11.7381 11.4252C12.0845 11.2999 12.4665 11.3174 12.8001 11.4737C12.9029 11.5223 23.5043 16.0237 35.789 11.3196C35.9593 11.2544 36.1409 11.2233 36.3232 11.2283C36.5055 11.2332 36.6851 11.2741 36.8517 11.3484C37.0183 11.4228 37.1685 11.5292 37.294 11.6616C37.4194 11.7941 37.5175 11.9499 37.5827 12.1203C37.6479 12.2906 37.679 12.4721 37.674 12.6545C37.6691 12.8368 37.6282 13.0164 37.5539 13.183C37.4795 13.3495 37.3731 13.4998 37.2407 13.6252C37.1082 13.7507 36.9524 13.8488 36.782 13.914C32.307 15.6279 27.9084 16.2154 24.0418 16.2154Z" fill="white"/>
<path d="M28.7472 19.9805L27.8291 22.1249C28.7972 22.0971 29.8388 22.0069 30.7235 21.8846L31.3847 20.5374C30.5277 20.5527 29.668 20.3763 28.7472 19.9805Z" fill="#FFAC33"/>
<path d="M25.7139 27.0139C25.1902 28.0973 26.5486 29.6167 27.7555 27.6848C28.1555 27.0431 29.3236 24.7278 30.7027 21.925C29.8847 22.0153 28.8208 22.0931 27.818 22.1487C27.1287 23.7756 26.4273 25.3974 25.7139 27.0139Z" fill="#CC6F00"/>
<path d="M47.775 13.3667C46.3583 11.1695 40.2791 2.68059 40.018 2.31531C39.889 2.13633 39.7194 1.99052 39.5231 1.88983C39.3268 1.78915 39.1095 1.73648 38.8888 1.73614C36.8625 1.73614 32.2736 1.71392 28.843 1.69725C26.7861 1.68753 25.1444 1.6792 24.7111 1.6792C23.8111 1.6792 23.0722 2.26948 22.8722 3.15003C22.4055 5.20559 24.9944 9.10976 33.8333 13.3486C39.6888 16.1556 43.0847 16.7459 44.9027 16.7459C46.95 16.7459 47.7347 15.9806 48.0319 15.3389C48.3291 14.6917 48.2319 13.9625 47.775 13.3667Z" fill="#77B255"/>
<path d="M36.3069 14.4596C40.6624 16.3041 43.3597 16.7443 44.9013 16.7443H44.9027C46.9499 16.7443 47.7333 15.9791 48.0305 15.3374C48.3291 14.6916 48.2333 13.9624 47.7749 13.3666C46.868 11.9596 44.0513 7.97628 42.0722 5.19434C43.1999 8.7735 43.6152 14.1763 36.3069 14.4596Z" fill="#5C913B"/>
<path d="M39.1501 4.68889C40.4449 4.68889 41.4946 3.63925 41.4946 2.34444C41.4946 1.04964 40.4449 0 39.1501 0C37.8553 0 36.8057 1.04964 36.8057 2.34444C36.8057 3.63925 37.8553 4.68889 39.1501 4.68889Z" fill="#3E721D"/>
</svg>
