<svg width="50" height="50" viewBox="0 0 50 50" fill="none" xmlns="http://www.w3.org/2000/svg">
<path d="M34.9871 7C27.6836 7 25.0003 14.3184 25.0003 14.3184C25.0003 14.3184 22.3536 7 14.9968 7C9.47007 7 3.16999 11.2968 5.49669 21.0645C7.82339 30.8321 25.0169 43 25.0169 43C25.0169 43 42.1472 30.8321 44.4772 21.0645C46.8039 11.2968 40.9571 7 34.9871 7Z" fill="#FF9800"/>
<path d="M13.8702 7.72922C19.6036 7.72922 22.4503 13.7755 23.3703 16.2248C23.5003 16.5747 23.997 16.5845 24.147 16.2444L24.987 14.3216C23.8037 10.6101 20.5502 7 14.9968 7C12.6968 7 10.2668 7.74557 8.3768 9.31847C10.0468 8.24262 12.0035 7.72922 13.8702 7.72922ZM34.9871 7C33.2237 7 31.7304 7.50359 30.4771 8.25897C31.3571 7.92542 32.3304 7.72922 33.4105 7.72922C38.8139 7.72922 43.6506 11.7481 41.4672 21.0383C39.5939 29.014 28.6471 38.6901 25.3037 42.382C25.0904 42.6174 25.017 42.9967 25.017 42.9967C25.017 42.9967 42.1472 30.8289 44.4773 21.0612C46.804 11.2968 40.5105 7 34.9871 7Z" fill="#F77E00"/>
<path d="M9.33344 12.183C10.5835 10.6527 12.8168 9.38715 14.7102 10.8456C15.7335 11.6337 15.2869 13.2491 14.3702 13.9293C13.0368 14.9233 11.8768 15.5218 11.0635 17.0783C10.5768 18.0135 10.2835 19.0371 10.1335 20.0802C10.0735 20.4922 9.52345 20.5936 9.31678 20.2306C7.91009 17.7846 7.51009 14.4165 9.33344 12.183ZM29.377 15.4008C28.7904 15.4008 28.377 14.8449 28.5904 14.3086C28.987 13.321 29.5004 12.3662 30.117 11.516C31.0304 10.2603 32.7671 9.52776 33.8671 10.2897C34.9938 11.068 34.8471 12.6245 34.0571 13.3766C32.3571 14.9887 30.2204 15.4008 29.377 15.4008Z" fill="#FFBD52"/>
</svg>
