<svg width="181" height="54" viewBox="0 0 181 54" fill="none" xmlns="http://www.w3.org/2000/svg">
<path d="M27.8438 47.25C38.5611 47.25 47.25 38.5611 47.25 27.8438C47.25 17.1264 38.5611 8.4375 27.8438 8.4375C17.1264 8.4375 8.4375 17.1264 8.4375 27.8438C8.4375 38.5611 17.1264 47.25 27.8438 47.25Z" fill="#F5FBFF"/>
<path d="M27.8438 41.3438C31.4242 41.3437 34.858 39.9214 37.3897 37.3897C39.9214 34.858 41.3437 31.4242 41.3438 27.8438C41.3437 24.2633 39.9214 20.8295 37.3897 18.2978C34.858 15.7661 31.4242 14.3438 27.8438 14.3438C24.2633 14.3438 20.8295 15.7661 18.2978 18.2978C15.7661 20.8295 14.3438 24.2633 14.3438 27.8438C14.3438 31.4242 15.7661 34.858 18.2978 37.3897C20.8295 39.9214 24.2633 41.3437 27.8438 41.3438Z" fill="#DEF1FF"/>
<path d="M11.5088 10.6481C11.2044 10.6481 10.9125 10.769 10.6973 10.9842C10.4821 11.1994 10.3613 11.4913 10.3613 11.7956V16.335C10.3613 16.6725 10.0913 16.9256 9.77063 16.9256C9.43313 16.9256 9.18 16.6556 9.18 16.335V11.8462C9.18 11.2219 8.69063 10.665 8.06625 10.6481C7.40813 10.6312 6.86813 11.1544 6.86813 11.7956V16.335C6.86813 16.6725 6.59813 16.9256 6.2775 16.9256C5.94 16.9256 5.68687 16.6556 5.68687 16.335V11.8462C5.68687 11.2219 5.1975 10.665 4.57313 10.6481C3.915 10.6312 3.375 11.1544 3.375 11.7956V19.5244C3.375 21.0465 4.11244 22.4049 5.24644 23.252C6.26063 23.8241 6.26063 26.4431 6.26063 26.4431V43.3519C6.26063 44.2294 6.96938 44.9381 7.84688 44.9381H8.235C9.1125 44.9381 9.82125 44.2294 9.82125 43.3519V26.4431C9.82125 26.4431 9.82125 23.927 10.8354 23.252C11.416 22.8192 11.8874 22.2568 12.2123 21.6097C12.5372 20.9625 12.7066 20.2485 12.7069 19.5244V11.7956C12.6898 11.4881 12.5566 11.1986 12.3341 10.9855C12.1117 10.7725 11.8167 10.6519 11.5088 10.6481ZM47.8575 10.6481C49.3763 10.6481 50.6081 11.88 50.6081 13.3987V43.3687C50.6081 44.2462 49.8994 44.955 49.0219 44.955H48.6338C47.7563 44.955 47.0475 44.2462 47.0475 43.3687V28.8275C46.1137 28.4036 45.3224 27.7189 44.7685 26.8558C44.2147 25.9927 43.922 24.988 43.9256 23.9625V14.5969C43.9216 14.0786 44.0204 13.5647 44.2164 13.0849C44.4124 12.6051 44.7016 12.1689 45.0672 11.8017C45.4329 11.4344 45.8679 11.1434 46.3468 10.9453C46.8258 10.7473 47.3392 10.6463 47.8575 10.6481Z" fill="#DAEEFC"/>
<path d="M31.4695 21.1064C28.7651 21.1064 27.7715 23.8163 27.7715 23.8163C27.7715 23.8163 26.7915 21.1064 24.0674 21.1064C22.0209 21.1064 19.6881 22.6975 20.5496 26.3143C21.4112 29.9311 27.7777 34.4367 27.7777 34.4367C27.7777 34.4367 34.1208 29.9311 34.9836 26.3143C35.8451 22.6975 33.6801 21.1064 31.4695 21.1064Z" fill="#FF9800"/>
<path d="M23.6502 21.3765C25.7732 21.3765 26.8273 23.6153 27.168 24.5223C27.2161 24.6518 27.4 24.6555 27.4556 24.5295L27.7666 23.8175C27.3285 22.4432 26.1237 21.1064 24.0674 21.1064C23.2157 21.1064 22.316 21.3825 21.6161 21.9649C22.2345 21.5666 22.959 21.3765 23.6502 21.3765ZM31.4695 21.1064C30.8166 21.1064 30.2636 21.2929 29.7995 21.5726C30.1254 21.4491 30.4858 21.3765 30.8857 21.3765C32.8865 21.3765 34.6775 22.8646 33.869 26.3046C33.1753 29.2579 29.1219 32.8408 27.8839 34.2079C27.8049 34.2951 27.7777 34.4355 27.7777 34.4355C27.7777 34.4355 34.1208 29.9299 34.9836 26.3131C35.8451 22.6975 33.5147 21.1064 31.4695 21.1064Z" fill="#F77E00"/>
<path d="M21.9703 23.0257C22.4332 22.459 23.2602 21.9904 23.9613 22.5304C24.3402 22.8222 24.1748 23.4204 23.8354 23.6722C23.3416 24.0403 22.9121 24.2619 22.6109 24.8383C22.4307 25.1846 22.3221 25.5636 22.2666 25.9499C22.2443 26.1024 22.0407 26.14 21.9642 26.0056C21.4433 25.0998 21.2952 23.8527 21.9703 23.0257ZM29.3922 24.2171C29.175 24.2171 29.0219 24.0113 29.1009 23.8127C29.2478 23.447 29.4379 23.0935 29.6662 22.7786C30.0044 22.3137 30.6475 22.0424 31.0548 22.3246C31.472 22.6128 31.4177 23.1891 31.1251 23.4676C30.4957 24.0646 29.7045 24.2171 29.3922 24.2171Z" fill="#FF9800"/>
<path d="M65.776 35V17.96H77.224V20.864H69.088V25.256H75.856V27.944H69.088V35H65.776ZM84.2329 35.24C83.2089 35.24 82.2889 35.064 81.4729 34.712C80.6569 34.36 79.9609 33.888 79.3849 33.296C78.8249 32.688 78.3929 31.992 78.0889 31.208C77.7849 30.424 77.6329 29.6 77.6329 28.736C77.6329 27.856 77.7849 27.024 78.0889 26.24C78.3929 25.456 78.8249 24.768 79.3849 24.176C79.9609 23.568 80.6569 23.088 81.4729 22.736C82.2889 22.384 83.2089 22.208 84.2329 22.208C85.2569 22.208 86.1689 22.384 86.9689 22.736C87.7849 23.088 88.4729 23.568 89.0329 24.176C89.6089 24.768 90.0489 25.456 90.3529 26.24C90.6569 27.024 90.8089 27.856 90.8089 28.736C90.8089 29.6 90.6569 30.424 90.3529 31.208C90.0489 31.992 89.6169 32.688 89.0569 33.296C88.4969 33.888 87.8089 34.36 86.9929 34.712C86.1769 35.064 85.2569 35.24 84.2329 35.24ZM80.9449 28.736C80.9449 29.296 81.0249 29.808 81.1849 30.272C81.3609 30.72 81.5929 31.112 81.8809 31.448C82.1849 31.784 82.5369 32.048 82.9369 32.24C83.3369 32.416 83.7689 32.504 84.2329 32.504C84.6969 32.504 85.1289 32.416 85.5289 32.24C85.9289 32.048 86.2729 31.784 86.5609 31.448C86.8649 31.112 87.0969 30.712 87.2569 30.248C87.4329 29.784 87.5209 29.272 87.5209 28.712C87.5209 28.168 87.4329 27.664 87.2569 27.2C87.0969 26.736 86.8649 26.336 86.5609 26C86.2729 25.664 85.9289 25.408 85.5289 25.232C85.1289 25.04 84.6969 24.944 84.2329 24.944C83.7689 24.944 83.3369 25.04 82.9369 25.232C82.5369 25.424 82.1849 25.688 81.8809 26.024C81.5929 26.36 81.3609 26.76 81.1849 27.224C81.0249 27.688 80.9449 28.192 80.9449 28.736ZM98.7876 35.24C97.7636 35.24 96.8436 35.064 96.0276 34.712C95.2116 34.36 94.5156 33.888 93.9396 33.296C93.3796 32.688 92.9476 31.992 92.6436 31.208C92.3396 30.424 92.1876 29.6 92.1876 28.736C92.1876 27.856 92.3396 27.024 92.6436 26.24C92.9476 25.456 93.3796 24.768 93.9396 24.176C94.5156 23.568 95.2116 23.088 96.0276 22.736C96.8436 22.384 97.7636 22.208 98.7876 22.208C99.8116 22.208 100.724 22.384 101.524 22.736C102.34 23.088 103.028 23.568 103.588 24.176C104.164 24.768 104.604 25.456 104.908 26.24C105.212 27.024 105.364 27.856 105.364 28.736C105.364 29.6 105.212 30.424 104.908 31.208C104.604 31.992 104.172 32.688 103.612 33.296C103.052 33.888 102.364 34.36 101.548 34.712C100.732 35.064 99.8116 35.24 98.7876 35.24ZM95.4996 28.736C95.4996 29.296 95.5796 29.808 95.7396 30.272C95.9156 30.72 96.1476 31.112 96.4356 31.448C96.7396 31.784 97.0916 32.048 97.4916 32.24C97.8916 32.416 98.3236 32.504 98.7876 32.504C99.2516 32.504 99.6836 32.416 100.084 32.24C100.484 32.048 100.828 31.784 101.116 31.448C101.42 31.112 101.652 30.712 101.812 30.248C101.988 29.784 102.076 29.272 102.076 28.712C102.076 28.168 101.988 27.664 101.812 27.2C101.652 26.736 101.42 26.336 101.116 26C100.828 25.664 100.484 25.408 100.084 25.232C99.6836 25.04 99.2516 24.944 98.7876 24.944C98.3236 24.944 97.8916 25.04 97.4916 25.232C97.0916 25.424 96.7396 25.688 96.4356 26.024C96.1476 26.36 95.9156 26.76 95.7396 27.224C95.5796 27.688 95.4996 28.192 95.4996 28.736ZM112.742 35.24C111.878 35.24 111.078 35.072 110.342 34.736C109.606 34.4 108.974 33.936 108.446 33.344C107.918 32.752 107.502 32.064 107.198 31.28C106.91 30.48 106.766 29.624 106.766 28.712C106.766 27.8 106.902 26.952 107.174 26.168C107.462 25.384 107.854 24.696 108.35 24.104C108.846 23.512 109.438 23.048 110.126 22.712C110.814 22.376 111.566 22.208 112.382 22.208C113.31 22.208 114.142 22.432 114.878 22.88C115.63 23.328 116.214 23.912 116.63 24.632V17.48H119.846V31.304C119.846 31.64 119.902 31.88 120.014 32.024C120.126 32.168 120.318 32.248 120.59 32.264V35C120.03 35.112 119.574 35.168 119.222 35.168C118.646 35.168 118.174 35.024 117.806 34.736C117.438 34.448 117.23 34.072 117.182 33.608L117.11 32.816C116.646 33.616 116.014 34.224 115.214 34.64C114.43 35.04 113.606 35.24 112.742 35.24ZM113.582 32.504C113.886 32.504 114.198 32.456 114.518 32.36C114.838 32.248 115.134 32.096 115.406 31.904C115.678 31.712 115.918 31.488 116.126 31.232C116.35 30.976 116.518 30.696 116.63 30.392V27.392C116.502 27.04 116.318 26.72 116.078 26.432C115.854 26.128 115.59 25.872 115.286 25.664C114.998 25.44 114.686 25.264 114.35 25.136C114.03 25.008 113.71 24.944 113.39 24.944C112.91 24.944 112.462 25.048 112.046 25.256C111.646 25.464 111.302 25.752 111.014 26.12C110.726 26.472 110.502 26.88 110.342 27.344C110.182 27.808 110.102 28.288 110.102 28.784C110.102 29.312 110.19 29.8 110.366 30.248C110.542 30.696 110.782 31.088 111.086 31.424C111.39 31.76 111.75 32.024 112.166 32.216C112.598 32.408 113.07 32.504 113.582 32.504ZM130.539 34.352C130.107 34.544 129.579 34.736 128.955 34.928C128.331 35.12 127.675 35.216 126.987 35.216C126.539 35.216 126.115 35.16 125.715 35.048C125.331 34.936 124.987 34.76 124.683 34.52C124.395 34.264 124.163 33.944 123.987 33.56C123.811 33.16 123.723 32.68 123.723 32.12V24.896H122.067V22.424H123.723V18.344H126.939V22.424H129.579V24.896H126.939V31.04C126.939 31.488 127.051 31.808 127.275 32C127.515 32.176 127.803 32.264 128.139 32.264C128.475 32.264 128.803 32.208 129.123 32.096C129.443 31.984 129.699 31.888 129.891 31.808L130.539 34.352ZM137.717 35.24C136.693 35.24 135.773 35.064 134.957 34.712C134.141 34.36 133.445 33.888 132.869 33.296C132.309 32.688 131.877 31.992 131.573 31.208C131.269 30.424 131.117 29.6 131.117 28.736C131.117 27.856 131.269 27.024 131.573 26.24C131.877 25.456 132.309 24.768 132.869 24.176C133.445 23.568 134.141 23.088 134.957 22.736C135.773 22.384 136.693 22.208 137.717 22.208C138.741 22.208 139.653 22.384 140.453 22.736C141.269 23.088 141.957 23.568 142.517 24.176C143.093 24.768 143.533 25.456 143.837 26.24C144.141 27.024 144.293 27.856 144.293 28.736C144.293 29.6 144.141 30.424 143.837 31.208C143.533 31.992 143.101 32.688 142.541 33.296C141.981 33.888 141.293 34.36 140.477 34.712C139.661 35.064 138.741 35.24 137.717 35.24ZM134.429 28.736C134.429 29.296 134.509 29.808 134.669 30.272C134.845 30.72 135.077 31.112 135.365 31.448C135.669 31.784 136.021 32.048 136.421 32.24C136.821 32.416 137.253 32.504 137.717 32.504C138.181 32.504 138.613 32.416 139.013 32.24C139.413 32.048 139.757 31.784 140.045 31.448C140.349 31.112 140.581 30.712 140.741 30.248C140.917 29.784 141.005 29.272 141.005 28.712C141.005 28.168 140.917 27.664 140.741 27.2C140.581 26.736 140.349 26.336 140.045 26C139.757 25.664 139.413 25.408 139.013 25.232C138.613 25.04 138.181 24.944 137.717 24.944C137.253 24.944 136.821 25.04 136.421 25.232C136.021 25.424 135.669 25.688 135.365 26.024C135.077 26.36 134.845 26.76 134.669 27.224C134.509 27.688 134.429 28.192 134.429 28.736ZM154 35.24C153.008 35.24 152.144 35.024 151.408 34.592C150.672 34.144 150.096 33.544 149.68 32.792V40.112H146.464V22.424H149.272V24.584C149.736 23.848 150.336 23.272 151.072 22.856C151.808 22.424 152.656 22.208 153.616 22.208C154.464 22.208 155.248 22.384 155.968 22.736C156.688 23.072 157.304 23.536 157.816 24.128C158.344 24.704 158.752 25.392 159.04 26.192C159.344 26.976 159.496 27.808 159.496 28.688C159.496 29.6 159.36 30.456 159.088 31.256C158.816 32.056 158.432 32.752 157.936 33.344C157.456 33.936 156.88 34.4 156.208 34.736C155.536 35.072 154.8 35.24 154 35.24ZM152.92 32.504C153.4 32.504 153.84 32.4 154.24 32.192C154.656 31.984 155.008 31.704 155.296 31.352C155.584 31 155.808 30.592 155.968 30.128C156.128 29.664 156.208 29.184 156.208 28.688C156.208 28.16 156.12 27.672 155.944 27.224C155.768 26.76 155.52 26.36 155.2 26.024C154.896 25.688 154.528 25.424 154.096 25.232C153.68 25.04 153.224 24.944 152.728 24.944C152.424 24.944 152.112 25 151.792 25.112C151.472 25.208 151.176 25.352 150.904 25.544C150.632 25.736 150.384 25.96 150.16 26.216C149.952 26.472 149.792 26.752 149.68 27.056V30.008C149.968 30.728 150.408 31.328 151 31.808C151.592 32.272 152.232 32.504 152.92 32.504ZM161.675 35V22.424H164.891V35H161.675ZM161.675 20.672V17.48H164.891V20.672H161.675ZM171.224 35.24C170.616 35.24 170.048 35.144 169.52 34.952C168.992 34.744 168.536 34.464 168.152 34.112C167.768 33.744 167.464 33.32 167.24 32.84C167.032 32.36 166.928 31.832 166.928 31.256C166.928 30.664 167.056 30.12 167.312 29.624C167.584 29.112 167.952 28.68 168.416 28.328C168.896 27.976 169.464 27.704 170.12 27.512C170.776 27.304 171.496 27.2 172.28 27.2C172.84 27.2 173.384 27.248 173.912 27.344C174.456 27.44 174.936 27.576 175.352 27.752V27.032C175.352 26.2 175.112 25.56 174.632 25.112C174.168 24.664 173.472 24.44 172.544 24.44C171.872 24.44 171.216 24.56 170.576 24.8C169.936 25.04 169.28 25.392 168.608 25.856L167.624 23.816C169.24 22.744 170.984 22.208 172.856 22.208C174.664 22.208 176.064 22.656 177.056 23.552C178.064 24.432 178.568 25.712 178.568 27.392V31.304C178.568 31.64 178.624 31.88 178.736 32.024C178.864 32.168 179.064 32.248 179.336 32.264V35C178.792 35.112 178.32 35.168 177.92 35.168C177.312 35.168 176.84 35.032 176.504 34.76C176.184 34.488 175.984 34.128 175.904 33.68L175.832 32.984C175.272 33.72 174.592 34.28 173.792 34.664C172.992 35.048 172.136 35.24 171.224 35.24ZM172.136 32.888C172.68 32.888 173.192 32.792 173.672 32.6C174.168 32.408 174.552 32.152 174.824 31.832C175.176 31.56 175.352 31.256 175.352 30.92V29.48C174.968 29.336 174.552 29.224 174.104 29.144C173.656 29.048 173.224 29 172.808 29C171.976 29 171.296 29.192 170.768 29.576C170.24 29.944 169.976 30.416 169.976 30.992C169.976 31.536 170.184 31.992 170.6 32.36C171.016 32.712 171.528 32.888 172.136 32.888Z" fill="#1B1B1B"/>
</svg>
