<svg width="50" height="50" viewBox="0 0 50 50" fill="none" xmlns="http://www.w3.org/2000/svg">
<path d="M7.90619 18.4609C7.90619 18.4609 5.76556 19.8086 5.51947 21.1523C5.27337 22.5 5.76556 24.0898 6.43744 25.1289C7.10931 26.168 7.90619 27.0273 8.88666 27.3945C9.86712 27.7617 10.7226 27.6992 10.7226 27.6992C10.7226 27.6992 12.9882 30.2695 17.0234 33.7578C21.0585 37.2461 26.2031 41.4063 32.0156 44.6484C37.8281 47.8906 39.9101 48.6875 41.4999 48.6875C43.0898 48.6875 43.0312 46.3008 42.8476 45.5664C42.664 44.832 32.4452 33.4531 32.4452 33.4531L7.90619 18.4609Z" fill="#FF8E00"/>
<path d="M12.1914 24.3983L10.6601 22.746C10.6601 22.746 9.07028 19.746 7.60153 19.746C6.13278 19.746 5.5195 21.1522 5.5195 21.1522C5.5195 21.1522 5.33591 19.621 7.17185 16.6874C9.00779 13.7538 11.332 11.4257 13.414 9.95692C15.4961 8.48817 18.0625 6.77332 19.7773 5.79676C21.4922 4.8202 25.2226 3.59364 27.3672 2.85926C29.5078 2.12489 34.1601 1.20692 36.3008 1.6366C38.4414 2.06629 39.3593 3.53504 39.3593 5.06239C39.3593 6.58973 38.9922 7.6327 38.6875 7.93739C38.3828 8.24207 36.3633 9.95692 36.3633 9.95692L12.1914 24.3983Z" fill="#F5B03E"/>
<path d="M16.4844 17.9492L12.6914 20.3984L11.1016 23.5195C11.1016 23.5195 11.4062 24.5586 11.8984 25.1094C12.3867 25.6602 16.4844 29.5859 19.418 32.0938C21.707 34.0508 26.5859 38.2031 26.5859 38.2031C26.5859 38.2031 26.7852 40.2891 27.0156 41.7539C27.1992 42.918 27.2109 44.8594 28.4375 44.8047C29.9844 44.7344 29.0938 41.6016 30.3203 41.6328C32.7695 41.6953 30.3398 48.3203 32.9727 48.2852C35.0703 48.2578 33.7383 44.6367 34.7891 44.0195C35.3594 43.6836 36.4922 45.1094 38.3398 45.918C40.6211 46.9141 42.0117 47.668 42.7461 47.3242C44.2969 46.5977 41.0273 29.6562 40.6602 26.7812C40.293 23.9062 38.4648 9.14062 38.3398 8.65234C38.2148 8.16406 35.707 8.10156 35.707 8.10156L31.8516 9.44922L26.3438 10.1836L19.8594 14.0391L16.4844 17.9492Z" fill="#FFCC8A"/>
<path d="M15.5274 17.3358C14.3243 18.0155 12.7735 18.3944 11.4649 20.5507C10.3751 22.3476 10.086 24.1874 10.8634 24.328C11.6407 24.4686 12.2305 21.7577 13.2657 20.7265C14.9259 19.0663 16.2696 18.8905 17.2227 18.0077C18.1759 17.1249 19.2188 14.7265 23.1915 12.6054C27.8204 10.1327 30.586 10.7851 31.668 10.3788C33.0821 9.84755 33.4649 8.98037 35.2345 8.61318C37.1055 8.22646 38.4063 8.97255 38.4063 8.97255C38.4063 8.97255 38.8321 7.98427 38.2657 7.52333C37.6993 7.0624 36.6563 6.70302 34.9141 7.05849C33.0079 7.44521 31.5938 8.71865 31.2071 8.7538C30.8204 8.78896 26.8634 8.57802 22.1641 11.2616C17.4649 13.9452 16.586 16.7343 15.5274 17.3358Z" fill="#CB6C22"/>
<path d="M20.9296 21.6093L14.6093 22.9882C14.6093 22.9882 14.5116 24.1874 14.5741 24.5429C14.7851 25.7421 16.3749 27.6523 17.328 27.9687C18.2811 28.2851 20.2226 28.3202 20.8593 28.039C21.496 27.7577 23.4022 26.3788 23.6483 25.6367C23.8944 24.8945 23.828 21.789 23.3358 21.2929C22.8436 20.8007 20.9296 21.6093 20.9296 21.6093Z" fill="#DB0D27"/>
<path d="M16.4804 19.6327C15.8046 20.1561 14.5038 21.9296 14.6093 23.1991C14.7148 24.4725 16.9062 26.6952 17.5038 26.9061C18.1015 27.1171 20.0468 27.1522 20.5429 27.0116C21.039 26.871 22.9453 25.4569 23.2265 24.9647C23.5078 24.4686 23.7578 21.7147 23.2968 21.2225C22.8359 20.7304 21.4609 19.2811 20.3671 18.9608C19.2695 18.6444 17.1171 19.1366 16.4804 19.6327Z" fill="#ED6D30"/>
<path d="M32.6562 25.5665C32.6562 25.5665 27.0624 25.1641 26.9921 25.5157C26.9218 25.8672 26.7929 27.2266 27.1484 28.3204C27.3984 29.0977 27.996 30.4415 29.832 31.2149C31.6679 31.9883 33.4335 31.1446 33.8945 30.7891C34.7577 30.125 35.3085 29.3047 35.4491 28.8125C35.5898 28.3204 32.6562 25.5665 32.6562 25.5665Z" fill="#DB0D27"/>
<path d="M29.9374 22.6329C29.0741 22.9454 27.0077 24.2227 26.9687 25.6368C26.9335 27.0509 27.9569 28.7813 28.4882 29.1681C29.0194 29.5548 30.7851 30.5821 32.0898 30.5118C33.3983 30.4415 35.1991 29.3829 35.4452 28.8165C35.6913 28.2501 35.7968 26.5899 35.6913 25.7423C35.5858 24.8946 33.7499 22.9884 32.8319 22.7032C31.914 22.422 30.7147 22.3517 29.9374 22.6329Z" fill="#ED6D30"/>
<path d="M29.7265 35.8438C29.7265 35.8438 24.6054 34.4297 24.5351 34.5352C24.4648 34.6406 23.7577 35.5234 23.9335 35.9492C24.1093 36.375 25.9101 37.8203 26.6523 38.457C27.3944 39.0938 29.6366 40.4102 29.9023 40.3633C30.539 40.2578 31.0312 39.2344 31.0312 39.2344L29.7265 35.8438Z" fill="#DB0D27"/>
<path d="M30.1837 33.6876C28.9337 32.7696 27.1094 32.8399 26.1212 33.3009C25.1329 33.7618 24.5313 34.3595 24.4258 34.8204C24.3204 35.2813 25.1368 36.1681 25.4571 36.4142C25.7735 36.6602 26.7344 37.3868 26.7344 37.3868C26.7344 37.3868 28.1602 38.504 28.6876 38.9102C29.4219 39.4767 30.3438 39.797 30.5899 39.8321C30.836 39.8673 31.9844 38.3829 31.7735 36.4024C31.6641 35.3907 31.2344 34.461 30.1837 33.6876Z" fill="#ED6D30"/>
<path d="M39.0859 30.8633L37.1796 30.793C37.1796 30.793 36.4023 32.2422 36.9335 33.8672C37.3671 35.1953 38.2773 35.9883 39.7929 36.4102C41.3124 36.8359 42.1601 36.6836 42.1601 36.6836L42.1835 35.6172L39.0859 30.8633Z" fill="#DB0D27"/>
<path d="M40.9218 28.4257C40.9218 28.4257 38.5702 28.1483 37.3554 30.3319C36.4257 32.0077 37.0741 33.4062 37.8163 34.2187C38.5585 35.0312 39.6874 35.5624 40.5351 35.6327C41.3827 35.703 42.2031 35.6366 42.2031 35.6366C42.2031 35.6366 41.8749 33.4687 41.5546 31.6562C41.3593 30.5702 40.9218 28.4257 40.9218 28.4257Z" fill="#ED6D30"/>
<path d="M34.0704 13.1328C34.0704 13.1328 29.5157 13.2734 29.2305 13.7344C28.9454 14.1953 28.9493 16.2422 29.0899 17.0547C29.2305 17.8672 30.4688 19.8438 32.9415 19.8789C35.4141 19.9141 36.2852 19.2969 37.2461 17.4297C38.2071 15.5625 37.2071 13.4727 37.2071 13.4727L34.0704 13.1328Z" fill="#DB0D27"/>
<path d="M34.1055 11.0469C33.1172 10.8554 31.7383 11.2578 31.0664 11.7187C30.3945 12.1797 29.3008 13.1328 29.2305 13.8398C29.1602 14.5469 29.7969 16.5937 30.043 16.9844C30.2891 17.3711 31.3125 18.4219 31.6328 18.5742C32.375 18.9258 34.4219 18.75 35.0235 18.539C35.625 18.3281 37.2852 16.9844 37.461 16.2773C37.6367 15.5703 37.8477 14.3711 37.0352 12.9219C36.2227 11.4726 35.0235 11.2265 34.1055 11.0469Z" fill="#ED6D30"/>
<path d="M40.539 40.6914L36.4726 40.5156C36.4726 40.5156 35.9257 41.6133 36.0898 42.5742C36.2226 43.3711 36.8828 44.457 38.0663 44.9141C38.7382 45.1719 40.496 45.0039 40.9257 44.7109C41.7929 44.1172 42.0703 43.0391 42.0429 42.4844C42.0312 42.1953 40.539 40.6914 40.539 40.6914Z" fill="#DB0D27"/>
<path d="M39.6524 38.9649C38.5977 38.8048 37.3829 39.3751 36.8594 39.9181C36.336 40.461 36.2305 41.1407 36.4298 41.961C36.793 43.461 37.754 43.8868 38.1993 44.1173C38.8594 44.4571 40.6719 44.3907 41.2423 43.9571C41.8087 43.5274 42.2383 42.7931 42.1055 41.6642C41.9688 40.5313 41.4688 39.2384 39.6524 38.9649Z" fill="#ED6D30"/>
<path d="M14.0625 12.1211C14.0976 12.9648 15.5742 12.8203 16.1562 12.7617C16.6211 12.7148 17.7851 12.6172 17.7851 11.8594C17.7851 11.1016 16.7695 11.1055 16.0117 11.1328C15.2812 11.1601 14.0312 11.4531 14.0625 12.1211ZM21.9961 7.15234C21.9961 7.70702 22.6054 7.76171 22.9843 7.79296C23.3632 7.8203 23.8554 7.67577 23.8867 7.24218C23.914 6.80468 23.539 6.54296 22.9843 6.51562C22.4023 6.48046 21.9961 6.68359 21.9961 7.15234ZM25.6289 8.48827C26.1875 9.09374 27.0234 8.28515 27.3164 7.90624C27.6054 7.52734 27.664 6.9453 27.3437 6.65624C27.0234 6.36718 26.414 6.68359 26.0078 7.06249C25.6015 7.4414 25.2812 8.10937 25.6289 8.48827ZM31.9375 5.40624C32.6171 6.17577 33.7382 4.8828 34.2031 4.4453C34.6679 4.0078 35.0468 3.39843 34.6093 2.90624C34.1718 2.41405 33.1836 3.10937 32.8086 3.54687C32.4296 3.98046 31.5 4.91405 31.9375 5.40624ZM10.5156 18.457C11.1757 18.6133 11.3906 17.832 11.5039 17.2344C11.6211 16.625 11.6211 16.043 11.125 15.957C10.5625 15.8594 10.2539 16.4219 10.164 16.9726C10.0898 17.4687 9.90621 18.3125 10.5156 18.457Z" fill="#FCC12B"/>
</svg>
