<svg width="50" height="50" viewBox="0 0 50 50" fill="none" xmlns="http://www.w3.org/2000/svg">
<path d="M24.5547 33.2969C36.7697 33.2969 46.6719 28.1989 46.6719 21.9102C46.6719 15.6214 36.7697 10.5234 24.5547 10.5234C12.3397 10.5234 2.4375 15.6214 2.4375 21.9102C2.4375 28.1989 12.3397 33.2969 24.5547 33.2969Z" fill="white" stroke="#78A2AC" stroke-width="4" stroke-miterlimit="10" stroke-linecap="round" stroke-linejoin="round"/>
<path d="M40.9687 14.7813C41.8828 12.5469 40.6836 9.875 38.2461 8.32031C37.8672 8.07813 37.375 8.16797 37.2383 8.5L33.9062 16.6484C33.7695 16.9805 34.0586 17.3906 34.4961 17.4844C37.3242 18.082 40.0547 17.0156 40.9687 14.7813Z" fill="#CD4525"/>
<path d="M35.3126 16.5743C35.9298 16.629 36.5235 16.5899 37.0743 16.4571C37.297 16.4063 37.3868 16.2071 37.2775 16.0079L36.2189 14.1212C36.1056 13.922 35.7892 13.8985 35.711 14.086L34.9025 16.0626C34.8165 16.2813 35.0275 16.547 35.3126 16.5743Z" fill="#F26660"/>
<path d="M37.5391 9.61723L36.7383 11.5782C36.6641 11.7618 36.9062 11.9727 37.125 11.9063L39.1875 11.3047C39.4023 11.2422 39.4766 11.0352 39.3555 10.8438C39.0389 10.3489 38.6445 9.90834 38.1875 9.5391C37.9648 9.35942 37.6289 9.39848 37.5391 9.61723Z" fill="#EC6C30"/>
<path d="M38.461 15.8712C38.8502 15.6236 39.1861 15.3009 39.4492 14.922C39.5703 14.7501 39.4532 14.4962 39.211 14.3985L37.0821 13.5274C36.8477 13.4337 36.6407 13.6095 36.75 13.8048L37.8047 15.6876C37.9375 15.9102 38.2617 16.004 38.461 15.8712Z" fill="#CD4525"/>
<path d="M39.9726 13.6798C40.0624 13.2032 40.0507 12.7149 39.9413 12.2306C39.8906 12.0001 39.5898 11.8399 39.3476 11.9103L37.1718 12.5431C36.9531 12.6056 36.9804 12.879 37.2109 12.9728L39.4335 13.8829C39.6796 13.9806 39.9335 13.8829 39.9726 13.6798Z" fill="#EC6C30"/>
<path d="M25.4272 16.7098C28.5339 16.2925 30.7142 13.4357 30.2969 10.329C29.8796 7.22223 27.0228 5.04199 23.916 5.45928C20.8093 5.87656 18.6291 8.73336 19.0463 11.8401C19.4636 14.9469 22.3204 17.1271 25.4272 16.7098Z" fill="#CD4525"/>
<path d="M22.5117 15.086C23.125 15.418 23.8164 15.6094 24.543 15.629C24.7539 15.6329 24.9219 15.4532 24.8945 15.2462L24.5547 12.711C24.5156 12.4102 24.1328 12.3087 23.9492 12.5508L22.4023 14.5782C22.2734 14.7462 22.3242 14.9883 22.5117 15.086ZM20.6484 8.9649C20.3164 9.59381 20.1289 10.3047 20.1211 11.0508C20.1211 11.254 20.3047 11.4102 20.5039 11.3829L23.0625 11.0391C23.3633 11.0001 23.4648 10.6172 23.2227 10.4337L21.1523 8.85162C20.9922 8.72272 20.75 8.7774 20.6484 8.9649ZM23.3477 6.73834C22.6289 6.95709 21.9961 7.3399 21.4844 7.84381C21.3359 7.98834 21.3477 8.23443 21.5117 8.35943L23.5938 9.94928C23.832 10.1329 24.1758 9.93365 24.1367 9.63287L23.7852 7.01568C23.7617 6.80475 23.5508 6.67584 23.3477 6.73834ZM26.8516 7.09772C26.2148 6.75006 25.4883 6.55084 24.7266 6.54303C24.5234 6.53912 24.3672 6.72662 24.3945 6.92584L24.7461 9.55475C24.7852 9.85553 25.168 9.95709 25.3516 9.7149L26.9648 7.60553C26.9937 7.56568 27.0137 7.52017 27.0236 7.47201C27.0335 7.42385 27.0331 7.37413 27.0224 7.32614C27.0117 7.27815 26.991 7.23297 26.9615 7.1936C26.932 7.15422 26.8946 7.12154 26.8516 7.09772ZM25.9336 15.4532C26.6406 15.2501 27.2656 14.8868 27.7773 14.4063C27.9297 14.2618 27.9219 14.0157 27.7539 13.8868L25.6992 12.3165C25.4609 12.1329 25.1172 12.3321 25.1563 12.6329L25.4961 15.1758C25.5234 15.3829 25.7305 15.5118 25.9336 15.4532ZM26.0664 11.8321L28.1328 13.4102C28.2969 13.5352 28.5352 13.4844 28.6367 13.3008C28.9844 12.6797 29.1875 11.9688 29.2109 11.2266C29.2128 11.1772 29.204 11.128 29.185 11.0823C29.166 11.0367 29.1373 10.9957 29.1008 10.9623C29.0644 10.9289 29.0212 10.9037 28.9741 10.8887C28.927 10.8736 28.8772 10.869 28.8281 10.8751L26.2266 11.2227C25.9297 11.2696 25.8281 11.6485 26.0664 11.8321ZM29.0469 9.85162C28.8398 9.12115 28.4609 8.47272 27.9609 7.94928C27.8164 7.79694 27.5703 7.80865 27.4414 7.97662L25.832 10.086C25.6484 10.3243 25.8477 10.668 26.1484 10.629L28.7656 10.2774C28.9648 10.2462 29.1016 10.0469 29.0469 9.85162ZM20.3242 12.4219C20.5391 13.1172 20.9102 13.7383 21.3945 14.2383C21.5391 14.3907 21.7852 14.379 21.9102 14.211L23.4609 12.1797C23.6445 11.9376 23.4453 11.5977 23.1445 11.6368L20.5977 11.9766C20.3945 12.0118 20.2656 12.2188 20.3242 12.4219Z" fill="#EC6C30"/>
<path d="M16.4532 16.9845C16.4293 16.9605 16.4096 16.9328 16.3946 16.9024C15.7501 15.7227 15.086 14.5509 14.4649 13.3634C13.3985 11.3204 12.0196 9.44149 9.86335 7.95712C9.62897 7.79696 9.26569 7.81649 9.06257 8.00009C7.836 9.11337 7.83991 10.4337 8.04694 11.7813C8.28131 13.3243 8.78131 14.8204 9.37506 16.3009C9.44538 16.4766 10.9688 19.5587 11.0391 19.7188C11.2501 20.1915 11.5079 19.7579 11.8946 20.1329C12.5821 20.797 11.9571 19.8282 12.6876 20.4649C12.8048 20.5665 12.9766 20.6134 13.1485 20.6056C14.4649 20.5352 15.7501 20.8165 17.0548 20.8516C17.1837 20.8556 17.3165 20.8243 17.4141 20.7579C18.0157 20.3712 17.5274 19.8634 17.5079 19.4063C17.3165 18.5548 17.129 17.7032 16.4532 16.9845Z" fill="#37654B"/>
<path d="M12.9376 19.6797C12.793 18.6328 11.8516 18.1367 11.3243 17.3515C11.0469 16.9414 10.6485 16.6172 10.3047 16.2539C8.56646 14.3359 6.67584 12.5898 4.39068 11.3398C3.73052 10.9804 2.93755 10.3047 2.20709 10.9414C1.46099 11.5937 1.96099 12.5 2.22271 13.2695C2.64459 14.5195 3.47271 15.5468 4.16021 16.6484C4.12115 17.3633 4.84771 17.5976 5.0899 18.1367C6.30084 19.5586 7.63287 20.8398 9.27349 21.7656C10.5235 21.1289 11.7579 20.4531 12.9376 19.6797Z" fill="#19432D"/>
<path d="M12.918 10.8905C13.5508 11.9765 14.4102 13.9804 14.4922 13.9491C15.2891 13.6366 16.082 12.8827 16.7422 13.4569C17.3359 13.9726 16.6602 14.6171 16.3945 15.1757C16.125 15.7382 15.5547 16.2421 15.8711 16.9179C16.0469 17.1444 16.3359 17.1874 16.582 17.0858C16.9844 16.914 14.707 21.0429 16.7969 21.91C18.5586 22.6405 23.7617 24.8319 26.1797 24.246C27.2812 23.9804 26.7461 20.785 26.9102 20.7577C27.3203 20.6952 24.6836 17.0429 25.0977 16.9921C25.3555 16.9608 21.6797 15.6054 21.6328 15.3241C21.582 15.121 21.5312 14.914 21.4414 14.7147C21.3125 14.4452 21.1211 14.1952 21.0547 13.9022C21.0273 13.7108 21.0391 13.5233 21.082 13.3319C21.1875 13.0351 21.2695 12.7382 21.2852 12.4296C21.3008 12.164 21.2891 11.8983 21.2344 11.6366C21.1953 11.4843 21.0391 11.1015 20.7734 10.7226C20.4961 10.3241 20.1094 9.92958 19.8789 9.73818C19.2812 9.24599 18.6055 8.83583 18.4141 8.73818C16.4023 7.72255 14.9297 8.04677 14.668 9.93349C14.4961 11.1132 13.6953 11.3046 12.918 10.8905Z" fill="#6D8B14"/>
<path d="M43.0859 15.8437C43.9375 15.5273 44.3437 15.8632 44.4414 16.7304C44.4766 17.0429 44.625 17.3476 44.7266 17.6523C45.1602 18.9726 45.4414 19.0898 46.6406 18.4609C47.0117 17.9062 47.3203 17.2773 47.6719 16.6952C48.2969 15.6718 48.9922 14.6757 49.1328 13.4492C49.2695 12.2577 48.8633 11.9101 47.7695 12.3632C45.918 13.121 44.4219 14.3827 43.0859 15.8437Z" fill="#37654B"/>
<path d="M44.6056 23.2421C44.9259 22.8242 46.8751 22.4726 47.9845 20.7773C48.5821 19.8671 48.8907 19.5429 49.3321 18.5468C49.5236 18.1132 49.7814 17.5898 49.3946 17.2265C49.2189 17.0624 48.6564 16.9101 48.09 17.2031C47.4532 17.5312 46.8946 18.0859 46.5314 18.2382C45.4962 18.4531 44.9767 17.9413 44.7579 16.9882C44.7032 16.7421 44.6134 16.4999 44.5314 16.2577C44.1798 15.1913 43.2228 15.0937 42.9767 15.621C42.8556 15.8202 42.8556 16.1171 42.4806 16.0702C42.1446 16.0234 42.0939 15.7929 42.0353 15.539C41.9415 15.1171 41.8829 14.6835 41.7579 14.2656C41.547 13.5624 41.047 13.3007 40.3361 13.4218C39.6564 13.5351 39.6446 14.0781 39.6017 14.582C39.5665 14.9804 39.6173 15.3827 39.5821 15.7812C39.5275 16.457 39.1954 16.9335 38.4962 17.0937C37.3751 16.746 38.0704 16.5898 36.9962 16.0781C35.3907 16.0038 34.9767 16.6249 35.4454 18.3867C35.9962 19.1445 36.7306 19.6796 37.5704 20.0742C38.1407 19.9101 38.3751 19.371 38.754 18.9921C39.6056 18.1367 39.836 17.6054 41.5548 18.1757C43.1993 18.7226 44.2892 18.7656 44.5665 20.5937C44.6642 21.1601 44.2579 22.7421 44.6056 23.2421Z" fill="#BCCE46"/>
<path d="M38.1758 19.082C37.6094 17.0468 37.6055 12.2578 39.2422 12.207C39.7617 12.2929 39.7071 11.7617 39.8672 11.457C39.9336 11.1992 39.961 10.9335 39.9571 10.664C39.9492 10.3867 39.9024 10.125 39.7422 9.9023C39.4922 9.67964 39.2031 9.64839 38.9024 9.66011C38.3399 9.67183 37.9453 10.0468 37.5586 10.4531C37.0157 11.1015 36.8086 11.5078 36.3672 12.1875C35.7774 11.3359 35.7578 10.5937 35.5352 9.70698C35.3086 8.81245 34.9883 8.39448 34.3164 9.25386C33.711 10.0234 33.4922 9.57808 33.3438 8.88667C33.2422 8.4062 33.2305 7.89448 33.0899 7.42964C32.875 6.7148 32.4649 6.20308 31.7188 6.32417C31.0196 6.43745 30.8907 6.99995 30.9141 7.69527C30.9297 8.10933 30.918 8.5273 30.8672 8.93745C30.711 10.2343 30.0625 10.871 28.9297 10.6796C28.043 10.5312 27.1367 10.3476 26.3828 9.71089C25.7032 9.26558 25.1563 9.41011 24.7422 10.1796C24.6836 10.2929 24.6407 10.4179 24.6055 10.5468C24.5352 10.871 24.5352 11.1953 24.6055 11.5195C25.3985 12.8515 26.3555 18.5742 27.2813 19.7968C27.8711 20.5781 28.1407 20.4921 28.4063 19.496C28.4922 19.1796 28.9102 19.1328 29.0157 18.8203C29.8477 16.3906 31.9766 15.625 33.4961 17.6054C33.8008 18.0039 33.9922 18.5468 34.5469 18.5937C35.4219 18.625 36.2852 18.75 37.125 19.0468C37.4688 19.1601 37.8203 19.3437 38.1758 19.082ZM3.74612 28.457C5.03128 27.2148 2.56253 24.5156 3.84768 23.2734C4.29299 23.2929 7.18753 25.1992 7.58987 25.246C11.5469 25.7226 16.4024 28.875 19.6719 28C22.6055 27.2148 19.2735 26.2382 17.9492 25.3828C16.6211 24.5234 13.793 23.7617 15.3555 22.7304C16.2227 22.3828 17.668 22.3203 18.875 22.4765C26.3711 23.4453 34.6367 23.6523 42.7852 23.9804C44.5157 24.2929 44.1407 24.7265 43.8946 25.1562C43.6407 25.4687 43.3828 25.7812 42.9453 26.082C42.3086 26.4921 41.3555 26.875 41.0313 27.3164C40.8867 27.6054 40.9492 27.8945 41.1758 28.1835C41.6914 28.6328 42.0977 29.0898 42.1797 29.5585C42.25 29.9609 42.1992 30.3671 41.9258 30.7656C41.5274 31.2382 40.918 31.6953 40.1407 32.1406C38.5352 32.7109 37.6055 33.4257 34.7227 33.7382C32.5117 33.7539 31.1992 34.1757 29.5235 34.4335C19.5547 35.9765 11.1133 35.1562 9.81253 32.2851C9.01175 30.4921 7.60549 27.8242 3.74612 28.457Z" fill="#6D8B14"/>
<path d="M1.5234 20.2461C1.29293 21.4219 1.7109 22.8242 2.10152 22.6563C2.44137 22.5117 3.44918 26.1562 3.98434 25.2734C4.10934 25.0664 5.94137 25.4375 6.56637 24.8555C7.05856 24.3945 6.38277 23.0469 6.39059 22.3438C6.3984 21.9141 7.53902 21.2109 6.94527 20.5234C6.53902 20.0547 4.31637 19.4766 4.32027 19.4766C5.15231 18.9883 4.71481 18.0898 4.98434 17.418C4.59762 16.9453 4.2109 16.4766 3.82418 16.0039C1.67184 16.168 1.87887 16.75 2.16402 17.9805C2.44527 19.2148 1.67574 19.4648 1.5234 20.2461Z" fill="#6E8C16"/>
<path d="M14.5547 16.039C15.668 16.7968 16.6758 17.6288 16.7539 19.1249C16.8359 19.2968 16.918 19.2968 17.0039 19.1249C16.9727 17.7616 18.0352 16.8085 18.3516 15.5859C18.582 14.6952 19.3359 13.6796 18.1523 12.9296C17.2188 12.3398 15.207 12.9101 14.5078 13.8632C14.3047 14.5898 15.082 15.3007 14.5547 16.039ZM9.21875 21.7773C9.23047 21.6523 9.23828 21.5273 9.25 21.4023C7.82813 20.0741 6.26953 18.8984 4.98437 17.4218C4.12891 17.9023 4.85938 18.8945 4.32031 19.4804C5.95313 20.2421 7.58594 21.0077 9.21875 21.7773ZM25.2617 13.6796C23.9141 13.4296 23.8203 14.996 23.8203 16.0859C23.3203 16.9687 23.4727 17.9023 23.5859 18.8359C23.6797 19.203 23.9141 19.4804 24.2148 19.6874C25.4609 20.5468 26.332 21.7499 27.1875 22.9648C29.2813 22.9687 33.5859 24.8632 35.6797 24.8671C35.9648 24.5702 35.8008 24.2695 35.6641 23.9921C34.3789 21.3984 36.0781 19.8515 37.9609 19.1093C38.4297 18.9257 39.1016 19.0663 39.3047 18.3788C39.0625 16.9921 38.2578 17.2616 36.7188 15.9413C35.1875 14.6288 34.1992 13.8202 32.3789 14.039C30.5039 14.2655 29.4883 15.5976 29.1016 17.8671C29.0703 18.039 29.0547 18.2148 29.0156 18.5351C27.3633 17.121 26.6094 13.9296 25.2617 13.6796Z" fill="#BCCE46"/>
<path d="M40.8789 26.9765C43.9297 28.4961 46.6093 23.8945 46.1797 21.3828C45.75 18.8711 42.5547 16.8242 39.3164 17.8828C35.9297 18.9922 33.1875 23.7383 33.7812 25.3047C34.9257 28.3437 36.0742 24.582 40.8789 26.9765Z" fill="#FDD777"/>
<path d="M18.832 31.0039C22.5772 31.0039 25.6133 28.3806 25.6133 25.1445C25.6133 21.9085 22.5772 19.2852 18.832 19.2852C15.0868 19.2852 12.0508 21.9085 12.0508 25.1445C12.0508 28.3806 15.0868 31.0039 18.832 31.0039Z" fill="#C38130"/>
<path d="M15.9025 25.6132C16.1368 29.2187 10.7267 30.3906 8.52356 29.1054C6.32043 27.8203 5.64075 23.8906 7.922 20.9609C10.3087 17.8984 15.879 16.7148 17.1251 17.8437C19.5431 20.0351 15.5353 19.9335 15.9025 25.6132ZM23.8712 38.4335C24.3009 42.5234 17.9728 43.6132 15.3165 42.0663C12.6603 40.5195 11.6915 36.0468 14.254 32.8359C16.9337 29.4765 23.4532 28.3788 24.9728 29.7109C27.9259 32.2851 23.1954 31.9999 23.8712 38.4335Z" fill="#FDD777"/>
<path d="M32.9214 30.521C36.5733 30.0305 39.1898 27.071 38.7653 23.9108C38.3408 20.7506 35.0362 18.5864 31.3842 19.0769C27.7322 19.5674 25.1158 22.5269 25.5403 25.6871C25.9648 28.8473 29.2694 31.0115 32.9214 30.521Z" fill="#CD4525"/>
<path d="M29.5351 28.9258C30.2461 29.25 31.0547 29.4336 31.9062 29.4375C32.1523 29.4375 32.3554 29.25 32.3242 29.0391L31.9765 26.4609C31.9375 26.1562 31.4882 26.0625 31.2695 26.3086L29.414 28.4101C29.2656 28.582 29.3242 28.8281 29.5351 28.9258ZM27.4843 22.7187C27.082 23.3672 26.8476 24.0976 26.8242 24.8555C26.8164 25.0625 27.0312 25.2187 27.2695 25.1875L30.2773 24.7851C30.6289 24.7383 30.7578 24.3476 30.4765 24.1641L28.082 22.5937C27.8867 22.4648 27.6054 22.5273 27.4843 22.7187ZM30.6953 20.3906C29.8515 20.625 29.0976 21.0312 28.4882 21.5586C28.3125 21.7109 28.3203 21.957 28.5117 22.082L30.9218 23.6601C31.1992 23.8437 31.6054 23.6328 31.5625 23.3281L31.207 20.6641C31.1757 20.4531 30.9336 20.3242 30.6953 20.3906ZM34.789 20.6875C34.0468 20.3437 33.1992 20.1562 32.3086 20.1641C32.0703 20.168 31.8828 20.3594 31.9101 20.5625L32.2695 23.2344C32.3086 23.5391 32.7578 23.6328 32.9765 23.3867L34.9101 21.1992C35.0625 21.0273 35.0039 20.7851 34.789 20.6875ZM33.539 29.2305C34.3711 29.0078 35.1132 28.625 35.7226 28.1211C35.9062 27.9687 35.8984 27.7187 35.707 27.5898L33.332 26.0312C33.0547 25.8476 32.6484 26.0586 32.6914 26.3633L33.039 28.9492C33.0625 29.1641 33.3047 29.293 33.539 29.2305ZM33.7734 25.5312L36.164 27.0976C36.3554 27.2226 36.6328 27.1641 36.7578 26.9766C37.1796 26.3359 37.4336 25.6094 37.4765 24.8476C37.4882 24.6328 37.2812 24.4648 37.0351 24.4961L33.9765 24.9062C33.6211 24.957 33.4961 25.3516 33.7734 25.5312ZM37.3086 23.4492C37.082 22.707 36.6523 22.0547 36.0742 21.5312C35.9062 21.3789 35.6172 21.3945 35.4648 21.5664L33.5351 23.75C33.3164 24 33.539 24.3437 33.8945 24.2969L36.9687 23.8828C37.2031 23.8555 37.3672 23.6484 37.3086 23.4492ZM27.0312 26.2539C27.2656 26.9609 27.6914 27.582 28.25 28.0859C28.4179 28.2383 28.7031 28.2187 28.8554 28.0469L30.7148 25.9453C30.9336 25.6953 30.7109 25.3516 30.3554 25.3984L27.3632 25.8008C27.1211 25.832 26.9648 26.0469 27.0312 26.2539Z" fill="#EC6C30"/>
<path d="M38.1054 33.4493C39.1796 31.8126 41.5507 32.0118 43.0234 31.4532C43.9726 30.7892 45.3359 30.5431 45.9804 29.4376C45.0468 29.2853 44.3632 29.711 43.6367 29.9571C42.9765 30.1837 42.6796 30.0782 42.8906 29.461C43.2617 28.3868 43.7773 28.047 44.1406 26.9728C44.2968 26.504 44.5195 25.9337 43.9843 25.6603C43.4726 25.4024 42.8867 25.754 42.3632 26.0196C41.6796 26.3673 41.1328 26.8087 40.6445 27.3321C40.2382 27.7696 39.3554 28.2423 38.5117 28.2696C37.8046 28.2931 37.3749 27.6642 37.1796 27.2579C37.0664 27.0274 36.914 26.8087 36.7773 26.586C36.1601 25.6134 35.9882 25.5899 34.7695 26.3009C34.6601 26.5196 34.7109 26.8165 34.246 26.8517C33.8281 26.879 33.7226 26.6642 33.6132 26.4298C33.4257 26.0313 33.2734 25.6212 33.0507 25.2384C32.6718 24.5938 32.0156 24.4454 31.164 24.7228C30.3593 24.9845 30.4374 25.5196 30.4765 26.0235C30.5078 26.422 30.6367 26.8087 30.6679 27.2071C30.7187 27.8868 30.5 28.5743 29.5781 28.7345C28.9296 28.8126 28.9687 28.3321 27.5703 28.0626C26.9101 27.9337 26.2031 27.9337 25.7499 28.6407C25.3945 29.1915 25.9218 30.172 26.0976 30.4962C26.3945 31.047 26.4648 31.8829 26.4453 32.3985C26.4062 33.6563 25.8632 34.8634 26.6406 35.0079C27.3085 34.7188 29.6992 34.9649 30.0937 34.5118C31.4609 32.9376 30.8515 34.4571 33.0468 34.6407C35.1484 34.8165 35.8281 32.379 36.4921 34.1134C36.6992 34.6603 37.5937 33.0353 38.1054 33.4493ZM10.0117 32.6563C8.89448 31.2618 4.20698 27.9884 3.81245 27.0782C3.64058 26.6837 3.40229 26.1993 3.92964 25.9884C4.43354 25.7892 5.02339 26.0978 5.55073 26.336C6.24214 26.6446 6.80854 27.0235 7.29683 27.4845C7.58589 27.754 7.75776 28.1563 8.39839 28.1563C9.62886 28.5587 10.3359 28.254 10.7421 27.5274C10.8476 27.3399 10.9921 27.1603 11.125 26.9806C11.7109 26.1876 11.8789 26.172 13.1132 26.8048C13.2304 26.9923 13.1875 27.2384 13.6523 27.2774C14.0703 27.3126 14.1679 27.1368 14.2695 26.9415C14.4453 26.6173 14.582 26.2774 14.7929 25.9649C15.1523 25.4376 15.8007 25.336 16.6523 25.5899C17.4609 25.8321 17.3984 26.2774 17.3749 26.6954C17.3554 27.0274 17.2382 27.3438 17.2187 27.6759C17.1875 28.2423 17.5195 28.6993 18.3476 28.9845C19.7656 28.9493 18.9414 28.6681 20.3242 28.4845C22.289 28.7774 22.7031 29.3751 21.8749 30.7071C21.0937 31.2032 22.539 34.1642 21.457 34.3009C20.7851 34.0392 18.414 34.1759 18.0078 33.7853C16.6015 32.4337 17.2539 33.7149 15.0781 33.8009C12.9921 33.8829 12.2421 31.8321 11.6367 33.2579C11.4453 33.7071 10.5078 32.3243 10.0117 32.6563Z" fill="#BCCE46"/>
<path d="M17.0314 26.5469C16.0704 27.4531 17.4181 29.336 19.3673 29.7735C19.8321 29.875 20.9298 29.7266 22.0079 29.4571C23.0274 29.2031 24.2267 29.3008 24.3048 29.3594C24.3634 29.4024 25.8204 28.4492 25.3673 28.1719C25.0899 28.0039 23.5196 28.5196 22.5782 28.2578C21.672 28.0078 20.9493 27.1133 20.0665 26.6719C18.6173 25.9414 17.4103 26.1875 17.0314 26.5469Z" fill="#6E8C16"/>
<path d="M24.2773 34.9102C10.8164 34.6992 2.44141 28.0586 2.44141 23.3477C2.44141 35.5625 12.3437 43.9648 24.5586 43.9648C36.7734 43.9648 46.6758 35.5625 46.6758 23.3477C46.6719 28.0586 39.2852 35.1445 24.2773 34.9102Z" fill="white" stroke="#78A2AC" stroke-width="4" stroke-miterlimit="10" stroke-linecap="round" stroke-linejoin="round"/>
<path d="M9.6055 27.6328C12.7227 28.9062 16.2227 27.7969 18.0821 25.1562C18.3711 24.7461 18.1993 24.1719 17.7344 23.9805L6.36331 19.332C5.89847 19.1406 5.37503 19.4297 5.293 19.9258C4.76566 23.1133 6.48441 26.3594 9.6055 27.6328Z" fill="#CD4525"/>
<path d="M6.60929 20.957C6.59367 21.6602 6.71085 22.3477 6.94523 22.9922C7.03898 23.25 7.31632 23.3789 7.57023 23.2695L10.0194 22.2422C10.0766 22.2183 10.1254 22.1779 10.1595 22.1262C10.1937 22.0745 10.2117 22.0138 10.2113 21.9518C10.2108 21.8898 10.192 21.8294 10.1572 21.7782C10.1223 21.7269 10.073 21.6872 10.0155 21.6641L7.25773 20.5352C6.95304 20.4141 6.6132 20.6289 6.60929 20.957ZM16.2538 24.2148L13.5155 23.0937C13.2577 22.9883 12.9999 23.2461 13.1093 23.5039L14.1288 25.9375C14.2343 26.1914 14.5234 26.2969 14.7734 26.1758C15.3866 25.8789 15.9452 25.4727 16.4218 24.9648C16.6484 24.7305 16.5546 24.3398 16.2538 24.2148ZM7.87492 24.6445C8.26164 25.1211 8.72648 25.5391 9.26164 25.875C9.50773 26.0312 9.83585 25.9258 9.94914 25.6523L10.914 23.293C11.0194 23.0352 10.7616 22.7773 10.5038 22.8867L8.06242 23.9102C7.76945 24.0352 7.6796 24.4023 7.87492 24.6445ZM10.9999 26.6016C11.6523 26.7539 12.3163 26.7891 12.9609 26.7109C13.2694 26.6758 13.453 26.3477 13.3319 26.0625L12.2577 23.5C12.2338 23.4428 12.1934 23.3941 12.1417 23.3599C12.09 23.3258 12.0293 23.3078 11.9674 23.3082C11.9054 23.3086 11.845 23.3274 11.7937 23.3623C11.7425 23.3971 11.7028 23.4464 11.6796 23.5039L10.6718 25.9687C10.5585 26.2344 10.7148 26.5352 10.9999 26.6016Z" fill="#EC6C30"/>
<path d="M2.03114 21.7773C2.03114 21.7773 1.60927 21.6094 0.925672 22.4961C-0.0235472 23.7265 0.359265 25.1133 0.84364 25.2969C1.32802 25.4805 2.96864 24.4805 3.7538 25.4062C4.53895 26.3359 4.21473 25.0859 4.42567 24.7851C4.63661 24.4844 4.55458 23.2695 4.55458 23.2695L3.03895 21.8945L2.03114 21.7773Z" fill="#6E8C16"/>
</svg>
