<svg width="16" height="16" viewBox="0 0 16 16" fill="none" xmlns="http://www.w3.org/2000/svg">
<g clip-path="url(#clip0_47_567)">
<path d="M8.26656 15.9999C12.6848 15.9999 16.2665 12.4182 16.2665 7.99996C16.2665 3.5817 12.6848 0 8.26656 0C3.8483 0 0.266602 3.5817 0.266602 7.99996C0.266602 12.4182 3.8483 15.9999 8.26656 15.9999Z" fill="#DAE3EA"/>
<path d="M8.23026 2.58164C5.103 2.58164 2.5212 4.98163 2.41211 7.99979V7.81797C2.41211 4.72708 5.03028 2.18164 8.23026 2.18164C11.4302 2.18164 14.0484 4.69072 14.0484 7.81797V7.99979C13.9393 4.98163 11.3939 2.58164 8.23026 2.58164Z" fill="#ACB8BF"/>
<path d="M8.23026 13.4179C11.3575 13.4179 13.9393 11.0179 14.0484 7.99976V8.18157C14.0484 11.2725 11.4302 13.8179 8.23026 13.8179C5.03028 13.8179 2.41211 11.3088 2.41211 8.18157V7.99976C2.55756 11.0179 5.103 13.4179 8.23026 13.4179Z" fill="white"/>
</g>
<defs>
<clipPath id="clip0_47_567">
<rect width="16" height="16" fill="white"/>
</clipPath>
</defs>
</svg>
