<svg width="16" height="16" viewBox="0 0 16 16" fill="none" xmlns="http://www.w3.org/2000/svg">
<g clip-path="url(#clip0_32_49)">
<path d="M7.99959 13.4041L4.12168 15.8501C3.95037 15.9643 3.77127 16.0132 3.58438 15.9969C3.39749 15.9806 3.23396 15.9154 3.0938 15.8012C2.95363 15.6871 2.84462 15.5442 2.76675 15.3727C2.68888 15.2011 2.6733 15.0097 2.72003 14.7984L3.7479 10.1754L0.313854 7.06897C0.158115 6.92221 0.0609337 6.7549 0.0223104 6.56705C-0.0163129 6.3792 -0.00478829 6.19591 0.0568844 6.01719C0.11918 5.83781 0.212624 5.69105 0.337215 5.5769C0.461806 5.46276 0.633119 5.38938 0.851154 5.35676L5.38317 4.94094L7.13523 0.587042C7.2131 0.391362 7.33396 0.244601 7.49779 0.146761C7.66163 0.0489203 7.8289 0 7.99959 0C8.1709 0 8.33816 0.0489203 8.50138 0.146761C8.66459 0.244601 8.78545 0.391362 8.86394 0.587042L10.616 4.94094L15.148 5.35676C15.366 5.38938 15.5374 5.46276 15.662 5.5769C15.7865 5.69105 15.88 5.83781 15.9423 6.01719C16.0046 6.19656 16.0164 6.38017 15.9778 6.56803C15.9392 6.75588 15.8417 6.92286 15.6853 7.06897L12.2513 10.1754L13.2791 14.7984C13.3259 15.0104 13.3103 15.2021 13.2324 15.3737C13.1546 15.5452 13.0455 15.6877 12.9054 15.8012C12.7652 15.9154 12.6017 15.9806 12.4148 15.9969C12.2279 16.0132 12.0488 15.9643 11.8775 15.8501L7.99959 13.4041Z" fill="#FFCC4D"/>
</g>
<defs>
<clipPath id="clip0_32_49">
<rect width="16" height="16" fill="white"/>
</clipPath>
</defs>
</svg>
