<svg width="16" height="16" viewBox="0 0 16 16" fill="none" xmlns="http://www.w3.org/2000/svg">
<g clip-path="url(#clip0_32_47)">
<path d="M7.99196 0C3.57598 0 0 3.58398 0 7.99995C0 12.4159 3.57598 15.9999 7.99196 15.9999C12.4159 15.9999 15.9999 12.4159 15.9999 7.99995C15.9999 3.58398 12.4159 0 7.99196 0ZM11.1999 11.1999C11.1259 11.2741 11.038 11.3329 10.9412 11.3731C10.8445 11.4132 10.7407 11.4339 10.6359 11.4339C10.5312 11.4339 10.4274 11.4132 10.3306 11.3731C10.2339 11.3329 10.146 11.2741 10.0719 11.1999L7.43996 8.56795C7.36437 8.49386 7.30423 8.4055 7.26304 8.308C7.22184 8.2105 7.2004 8.1058 7.19996 7.99995V4.79997C7.19996 4.35997 7.55996 3.99998 7.99996 3.99998C8.43995 3.99998 8.79995 4.35997 8.79995 4.79997V7.67196L11.1999 10.0719C11.5119 10.3839 11.5119 10.8879 11.1999 11.1999Z" fill="#BCCE46"/>
</g>
<defs>
<clipPath id="clip0_32_47">
<rect width="16" height="16" fill="white"/>
</clipPath>
</defs>
</svg>
